<svg xmlns="http://www.w3.org/2000/svg" xmlns:xlink="http://www.w3.org/1999/xlink" version="1.1" width="undefined" height="undefined"><rect id="backgroundrect" width="100%" height="100%" x="0" y="0" fill="none" stroke="none"/><g class="currentLayer" style=""><title>Layer 1</title><g id="svg_1" class="selected" fill-opacity="1" fill="#dae3ed"><g data-paper-data="{&quot;isPaintingLayer&quot;:true}" fill="#dae3ed" fill-rule="nonzero" stroke="none" stroke-width="1" stroke-linecap="butt" stroke-linejoin="miter" stroke-miterlimit="10" stroke-dasharray="" stroke-dashoffset="0" style="mix-blend-mode: normal" id="svg_2"><path d="M41.23240966796874,17.800006103515614 l-8.2,8 l1.8,11.3 c0.2,1 -0.2,2 -1,2.6 c-0.4,0.30000000000000004 -1,0.5 -1.5,0.5 c-0.4,0 -0.8,-0.1 -1.2,-0.30000000000000004 l-10.1,-5.3 l-10.2,5.3 c-0.4,0.2 -0.8,0.30000000000000004 -1.2,0.30000000000000004 c-0.5,0 -1,-0.2 -1.5,-0.5 c-0.8,-0.6000000000000001 -1.2,-1.6 -1,-2.6 l1.9,-11.2 l-8.2,-8 c-0.8,-0.7000000000000001 -1,-1.7000000000000002 -0.7000000000000001,-2.7 c0.30000000000000004,-1 1.1,-1.7000000000000002 2.1,-1.8 l11.3,-1.6 l5.1,-10.3 c0.5,-0.9 1.4,-1.5 2.4,-1.5 c1,0 2,0.6000000000000001 2.4,1.5 l5.1,10.3 l11.3,1.6 c1,0.2 1.8,0.8 2.1,1.8 c0.30000000000000004,0.9 0,2 -0.7000000000000001,2.6 z" id="svg_3" fill="#dae3ed"/></g></g></g></svg>