<svg version="1.1" xmlns="http://www.w3.org/2000/svg" xmlns:xlink="http://www.w3.org/1999/xlink" width="42.04825" height="40.2" viewBox="0,0,42.04825,40.2"><g transform="translate(-218.96759,-158.9)"><g data-paper-data="{&quot;isPaintingLayer&quot;:true}" fill="#f5b700" fill-rule="nonzero" stroke="none" stroke-width="1" stroke-linecap="butt" stroke-linejoin="miter" stroke-miterlimit="10" stroke-dasharray="" stroke-dashoffset="0" style="mix-blend-mode: normal"><path d="M260.2,176.7l-8.2,8l1.8,11.3c0.2,1 -0.2,2 -1,2.6c-0.4,0.3 -1,0.5 -1.5,0.5c-0.4,0 -0.8,-0.1 -1.2,-0.3l-10.1,-5.3l-10.2,5.3c-0.4,0.2 -0.8,0.3 -1.2,0.3c-0.5,0 -1,-0.2 -1.5,-0.5c-0.8,-0.6 -1.2,-1.6 -1,-2.6l1.9,-11.2l-8.2,-8c-0.8,-0.7 -1,-1.7 -0.7,-2.7c0.3,-1 1.1,-1.7 2.1,-1.8l11.3,-1.6l5.1,-10.3c0.5,-0.9 1.4,-1.5 2.4,-1.5c1,0 2,0.6 2.4,1.5l5.1,10.3l11.3,1.6c1,0.2 1.8,0.8 2.1,1.8c0.3,0.9 0,2 -0.7,2.6z"/></g></g></svg>